<?xml version="1.0" encoding="UTF-8"?>
<svg id="Layer_1" xmlns="http://www.w3.org/2000/svg" version="1.1" viewBox="0 0 76.6 88.9">
  <!-- Generator: Adobe Illustrator 29.6.1, SVG Export Plug-In . SVG Version: 2.1.1 Build 9)  -->
  <circle cx="26.5" cy="21.5" r="6.4"/>
  <path d="M16.1,40.8h20.8c.4,0,.8-.3.8-.8v-.5c0-5.5-4.4-9.9-9.9-9.9h-2.5c-5.5,0-9.9,4.4-9.9,9.9v.5c0,.4.3.8.8.8h-.1Z"/>
  <path d="M72.7,81.8V6.4c0-1.7-1.3-3-3-3H6.9c-1.7,0-3,1.3-3,3v75.4c0,1.7,1.3,3,3,3h62.8c1.7,0,3-1.3,3-3ZM66.7,78.8H9.9V9.4h56.8s0,69.4,0,69.4Z"/>
  <rect x="40.7" y="21.8" width="23.2" height="6"/>
  <rect x="40.7" y="33.8" width="23.2" height="6"/>
  <rect x="13.7" y="51.8" width="50.3" height="6"/>
  <rect x="13.7" y="63.8" width="50.3" height="6"/>
</svg>